<svg xmlns="http://www.w3.org/2000/svg" version="1.1" xmlns:xlink="http://www.w3.org/1999/xlink" xmlns:svgjs="http://svgjs.dev/svgjs" width="180" height="180"><svg xmlns="http://www.w3.org/2000/svg" version="1.1" viewBox="0 0 180 180">
  <!-- Generator: Adobe Illustrator 28.7.1, SVG Export Plug-In . SVG Version: 1.2.0 Build 142)  -->
  <g>
    <g id="SvgjsG1006">
      <path d="M143.59,21.31l-11.34,3,1.37,7.88c-2.97-3.17-6.14-5.21-9.52-6.11-4.37-1.22-8.31-.39-11.82,2.49-1.6,1.33-2.97,2.97-4.11,4.94-1.15,1.96-2.15,4.54-3,7.72-.85,3.18-1.42,8.45-1.68,15.82-6.81,1.19-13.54,2.72-20.2,4.64,0,0,0,0,0,0h0c-6.79,1.97-13.5,4.32-20.14,7.18-7.11,2.85-11.79,8.44-14.02,16.77l-14.87,55.51,7.31,6.53,28.2-11.27c7.13-2.89,11.64-7.88,13.54-14.97l8.97-33.47c1.22-4.56.65-9.52-1.53-14.86l.51-.13c4.03-1.55,7.89-2.56,11.57-3.02-1.31,9.72-4.4,23.66-9.27,41.83-3.28,12.24-8.22,26.25-14.83,42.03l11.79,4.86c3.83-9.3,7.33-18.56,10.47-27.79,1.37-3.97,2.55-7.79,3.54-11.45,1.07-3.64,2.82-9.95,5.23-18.94,2.41-8.99,4.29-18.61,5.65-28.89l12.58,3.37,3.31-12.36-15.03-4.03.24-6.37c.14-3.22.48-5.84,1.02-7.86,1.14-4.24,2.96-6.02,5.47-5.36.82.22,1.55.67,2.19,1.37l2.1,2.26c.72.81,1.58,1.64,2.59,2.48.98.78,2.22,1.38,3.74,1.81,1.51.44,2.92.51,4.23.24,3.81-.73,6.27-3.17,7.38-7.31,1.1-4.1.56-10.28-1.62-18.56ZM79.97,84.67l-8.97,33.47c-.9,3.37-2.87,5.63-5.92,6.78l-14.85,5.71,11.17-41.7c1.1-4.1,3.22-6.83,6.38-8.21l10.83-4.54c1.65,2.87,2.11,5.71,1.36,8.5Z"></path>
    </g>
  </g>
</svg><style>@media (prefers-color-scheme: light) { :root { filter: none; } }
@media (prefers-color-scheme: dark) { :root { filter: none; } }
</style></svg>